<svg xmlns="http://www.w3.org/2000/svg" width="1500" height="900" viewBox="0 0 1500 900">
<title>Sequência de consulta de notas</title>
<desc>Responsável: Pedro Henrique Almeida Durães. </desc>
<rect x="0" y="0" width="1500" height="900" rx="0" fill="#FFFFFF" stroke="none" stroke-width="0"/>
<text x="750.0" y="40.0" font-family="Arial, sans-serif" font-size="25" font-weight="700" fill="#111111" text-anchor="middle">Sequência de consulta de notas</text>
<text x="750.0" y="65.0" font-family="Arial, sans-serif" font-size="13" font-weight="400" fill="#555555" text-anchor="middle">Responsável: Pedro Henrique Almeida Durães</text>
<rect x="70.0" y="145" width="220" height="64" rx="4" fill="#FFFFFF" stroke="#222222" stroke-width="1.5"/>
<text x="180" y="174.0" font-family="Arial, sans-serif" font-size="16" font-weight="700" fill="#111111" text-anchor="middle">Aluno</text>
<line x1="180" y1="209" x2="180" y2="855" stroke="#777777" stroke-width="1" stroke-dasharray="5,5"/>
<rect x="450.0" y="145" width="220" height="64" rx="4" fill="#FFFFFF" stroke="#222222" stroke-width="1.5"/>
<text x="560" y="174.0" font-family="Arial, sans-serif" font-size="16" font-weight="700" fill="#111111" text-anchor="middle">Portal web</text>
<line x1="560" y1="209" x2="560" y2="855" stroke="#777777" stroke-width="1" stroke-dasharray="5,5"/>
<rect x="830.0" y="145" width="220" height="64" rx="4" fill="#FFFFFF" stroke="#222222" stroke-width="1.5"/>
<text x="940" y="174.0" font-family="Arial, sans-serif" font-size="16" font-weight="700" fill="#111111" text-anchor="middle">Serviço de notas</text>
<line x1="940" y1="209" x2="940" y2="855" stroke="#777777" stroke-width="1" stroke-dasharray="5,5"/>
<rect x="1210.0" y="145" width="220" height="64" rx="4" fill="#FFFFFF" stroke="#222222" stroke-width="1.5"/>
<text x="1320" y="165.0" font-family="Arial, sans-serif" font-size="16" font-weight="700" fill="#111111" text-anchor="middle">Repositório</text>
<text x="1320" y="183.0" font-family="Arial, sans-serif" font-size="16" font-weight="700" fill="#111111" text-anchor="middle">acadêmico</text>
<line x1="1320" y1="209" x2="1320" y2="855" stroke="#777777" stroke-width="1" stroke-dasharray="5,5"/>
<line x1="180" y1="255" x2="560" y2="255" stroke="#222222" stroke-width="2"/>
<polygon points="560,255 546.0,249.0 546.0,261.0" fill="#222222" stroke="#222222" stroke-width="2" stroke-linejoin="round"/>
<text x="370.0" y="246.0" font-family="Arial, sans-serif" font-size="15" font-weight="400" fill="#111111" text-anchor="middle">Consultar notas do período</text>
<line x1="560" y1="315" x2="940" y2="315" stroke="#222222" stroke-width="2"/>
<polygon points="940,315 926.0,309.0 926.0,321.0" fill="#222222" stroke="#222222" stroke-width="2" stroke-linejoin="round"/>
<text x="750.0" y="306.0" font-family="Arial, sans-serif" font-size="15" font-weight="400" fill="#111111" text-anchor="middle">Buscar notas do aluno</text>
<line x1="940" y1="375" x2="1320" y2="375" stroke="#222222" stroke-width="2"/>
<polygon points="1320,375 1306.0,369.0 1306.0,381.0" fill="#222222" stroke="#222222" stroke-width="2" stroke-linejoin="round"/>
<text x="1130.0" y="366.0" font-family="Arial, sans-serif" font-size="15" font-weight="400" fill="#111111" text-anchor="middle">Consultar matrículas e notas publicadas</text>
<line x1="1320" y1="435" x2="940" y2="435" stroke="#222222" stroke-width="2" stroke-dasharray="7,5"/>
<polygon points="940,435 954.0,441.0 954.0,429.0" fill="#222222" stroke="#222222" stroke-width="2" stroke-linejoin="round"/>
<text x="1130.0" y="426.0" font-family="Arial, sans-serif" font-size="15" font-weight="400" fill="#111111" text-anchor="middle">Retornar notas e situação</text>
<line x1="940" y1="495" x2="560" y2="495" stroke="#222222" stroke-width="2" stroke-dasharray="7,5"/>
<polygon points="560,495 574.0,501.0 574.0,489.0" fill="#222222" stroke="#222222" stroke-width="2" stroke-linejoin="round"/>
<text x="750.0" y="486.0" font-family="Arial, sans-serif" font-size="15" font-weight="400" fill="#111111" text-anchor="middle">Retornar notas por disciplina</text>
<line x1="560" y1="555" x2="180" y2="555" stroke="#222222" stroke-width="2" stroke-dasharray="7,5"/>
<polygon points="180,555 194.0,561.0 194.0,549.0" fill="#222222" stroke="#222222" stroke-width="2" stroke-linejoin="round"/>
<text x="370.0" y="546.0" font-family="Arial, sans-serif" font-size="15" font-weight="400" fill="#111111" text-anchor="middle">Exibir notas</text>
</svg>