<svg xmlns="http://www.w3.org/2000/svg" width="960" height="900" viewBox="0 0 960 900">
<title>Atividade de matrícula</title>
<desc>Responsável: Samuel. </desc>
<rect x="0" y="0" width="960" height="900" rx="0" fill="#FFFFFF" stroke="none" stroke-width="0"/>
<text x="480.0" y="40.0" font-family="Arial, sans-serif" font-size="25" font-weight="700" fill="#111111" text-anchor="middle">Atividade de matrícula</text>
<text x="480.0" y="65.0" font-family="Arial, sans-serif" font-size="13" font-weight="400" fill="#555555" text-anchor="middle">Responsável: Samuel</text>
<ellipse cx="480.0" cy="112.0" rx="10.0" ry="10.0" fill="#111111" stroke="#111111" stroke-width="1"/>
<line x1="480" y1="122" x2="480" y2="148" stroke="#333333" stroke-width="2"/>
<polygon points="480,148 486.0,134.0 474.0,134.0" fill="#333333" stroke="#333333" stroke-width="2" stroke-linejoin="round"/>
<rect x="330" y="148" width="300" height="70" rx="6" fill="#FFFFFF" stroke="#222222" stroke-width="2"/>
<text x="480.0" y="189.12" font-family="Arial, sans-serif" font-size="18" font-weight="400" fill="#111111" text-anchor="middle">Selecionar período e disciplinas</text>
<line x1="480" y1="218" x2="480" y2="258" stroke="#333333" stroke-width="2"/>
<polygon points="480,258 486.0,244.0 474.0,244.0" fill="#333333" stroke="#333333" stroke-width="2" stroke-linejoin="round"/>
<rect x="315" y="258" width="330" height="82" rx="6" fill="#FFFFFF" stroke="#222222" stroke-width="2"/>
<text x="480.0" y="294.14" font-family="Arial, sans-serif" font-size="18" font-weight="400" fill="#111111" text-anchor="middle">Validar pré-requisitos, vagas</text>
<text x="480.0" y="316.09999999999997" font-family="Arial, sans-serif" font-size="18" font-weight="400" fill="#111111" text-anchor="middle">e horários</text>
<line x1="480" y1="340" x2="480" y2="382" stroke="#333333" stroke-width="2"/>
<polygon points="480,382 486.0,368.0 474.0,368.0" fill="#333333" stroke="#333333" stroke-width="2" stroke-linejoin="round"/>
<polygon points="480,382.0 530.0,432 480,482.0 430.0,432" fill="#FFFFFF" stroke="#222222" stroke-width="1.5" stroke-linejoin="round"/>
<text x="480" y="438.0" font-family="Arial, sans-serif" font-size="16" font-weight="700" fill="#111111" text-anchor="middle">Válidas?</text>
<line x1="430" y1="432" x2="340" y2="432" stroke="#333333" stroke-width="2"/>
<line x1="340" y1="432" x2="340" y2="535" stroke="#333333" stroke-width="2"/>
<polygon points="340,535 346.0,521.0 334.0,521.0" fill="#333333" stroke="#333333" stroke-width="2" stroke-linejoin="round"/>
<text x="350" y="420.0" font-family="Arial, sans-serif" font-size="14" font-weight="400" fill="#555555" text-anchor="start">Não</text>
<rect x="90" y="502" width="250" height="66" rx="6" fill="#FFFFFF" stroke="#222222" stroke-width="2"/>
<text x="215.0" y="541.12" font-family="Arial, sans-serif" font-size="18" font-weight="400" fill="#111111" text-anchor="middle">Corrigir disciplinas</text>
<line x1="215" y1="502" x2="215" y2="184" stroke="#333333" stroke-width="2"/>
<line x1="215" y1="184" x2="330" y2="184" stroke="#333333" stroke-width="2"/>
<polygon points="330,184 316.0,178.0 316.0,190.0" fill="#333333" stroke="#333333" stroke-width="2" stroke-linejoin="round"/>
<line x1="530" y1="432" x2="620" y2="432" stroke="#333333" stroke-width="2"/>
<line x1="620" y1="432" x2="620" y2="530" stroke="#333333" stroke-width="2"/>
<line x1="620" y1="530" x2="650" y2="530" stroke="#333333" stroke-width="2"/>
<polygon points="650,530 636.0,524.0 636.0,536.0" fill="#333333" stroke="#333333" stroke-width="2" stroke-linejoin="round"/>
<text x="545" y="420.0" font-family="Arial, sans-serif" font-size="14" font-weight="400" fill="#555555" text-anchor="start">Sim</text>
<rect x="650" y="496" width="250" height="68" rx="6" fill="#FFFFFF" stroke="#222222" stroke-width="2"/>
<text x="775.0" y="536.12" font-family="Arial, sans-serif" font-size="18" font-weight="400" fill="#111111" text-anchor="middle">Confirmar matrícula</text>
<line x1="775" y1="564" x2="775" y2="610" stroke="#333333" stroke-width="2"/>
<polygon points="775,610 781.0,596.0 769.0,596.0" fill="#333333" stroke="#333333" stroke-width="2" stroke-linejoin="round"/>
<rect x="650" y="610" width="250" height="82" rx="6" fill="#FFFFFF" stroke="#222222" stroke-width="2"/>
<text x="775.0" y="646.14" font-family="Arial, sans-serif" font-size="18" font-weight="400" fill="#111111" text-anchor="middle">Registrar matrícula e</text>
<text x="775.0" y="668.1" font-family="Arial, sans-serif" font-size="18" font-weight="400" fill="#111111" text-anchor="middle">gerar protocolo</text>
<line x1="775" y1="692" x2="775" y2="748" stroke="#333333" stroke-width="2"/>
<polygon points="775,748 781.0,734.0 769.0,734.0" fill="#333333" stroke="#333333" stroke-width="2" stroke-linejoin="round"/>
<ellipse cx="775.0" cy="768.0" rx="15.0" ry="15.0" fill="#FFFFFF" stroke="#111111" stroke-width="4"/>
<ellipse cx="775.0" cy="768.0" rx="8.0" ry="8.0" fill="#111111" stroke="#111111" stroke-width="1"/>
</svg>